<svg width="17" height="18" viewBox="0 0 28 29" fill="none" xmlns="http://www.w3.org/2000/svg">
<path d="M0.246649 5.76154L8.73846 14.5L0.246649 23.2385C0.0931406 22.9061 7.62939e-06 22.5388 7.62939e-06 22.1465V6.85351C7.62939e-06 6.46116 0.0931406 6.09385 0.246649 5.76154Z" fill="white"/>
<path d="M2.46095 4.30469H25.5391C25.9179 4.30469 26.2725 4.40115 26.5934 4.56014L15.7399 15.7446C14.7803 16.7385 13.2197 16.7385 12.2601 15.7446L1.40663 4.56014C1.72748 4.40115 2.08212 4.30469 2.46095 4.30469Z" fill="white"/>
<path d="M27.7534 5.76154C27.9069 6.09385 28 6.46116 28 6.85351V22.1465C28 22.5388 27.9069 22.9062 27.7534 23.2385L19.2615 14.5L27.7534 5.76154Z" fill="white"/>
<path d="M9.89844 15.7014L11.1001 16.946C12.6991 18.6021 15.301 18.6021 16.9 16.946L18.1016 15.7014L26.5934 24.4399C26.2725 24.5989 25.9179 24.6953 25.5391 24.6953H2.46095C2.08212 24.6953 1.72748 24.5989 1.40663 24.4399L9.89844 15.7014Z" fill="white"/>
</svg>
